PathFileType	4	(X/Y/Z)	/Users/itak/Documents/Research/Walk-IL/dataset/trc/00123_00007.trc
DataRate	CameraRate	NumFrames	NumMarkers	Units	OrigDataRate	OrigDataStartFrame	OrigNumFrames
100.000000	100.000000	4	53	mm	100.000000	272	727
Frame#	Time	RPSI			LPSI			L3			STRN			T10			C7			CLAV			RBAK			LBAK			LSHO			LUPA			LAEL			LAOL			LWTS			LWPS			LFRA			LIFD			LHPS			LHTS			RSHO			RUPA			RAEL			RAOL			RWTS			RWPS			RFRA			RIFD			RHTS			RHPS			RBHD			LFHD			RFHD			LBHD			LHIP			RHIP			RASI			LASI			LKNE			LTHI			LANK			LTIP			LTOE			LMT1			LMT5			LHEE			RKNE			RTHI			RANK			RTIP			RTOE			RMT1			RMT5			RHEE			
		X1	Y1	Z1	X2	Y2	Z2	X3	Y3	Z3	X4	Y4	Z4	X5	Y5	Z5	X6	Y6	Z6	X7	Y7	Z7	X8	Y8	Z8	X9	Y9	Z9	X10	Y10	Z10	X11	Y11	Z11	X12	Y12	Z12	X13	Y13	Z13	X14	Y14	Z14	X15	Y15	Z15	X16	Y16	Z16	X17	Y17	Z17	X18	Y18	Z18	X19	Y19	Z19	X20	Y20	Z20	X21	Y21	Z21	X22	Y22	Z22	X23	Y23	Z23	X24	Y24	Z24	X25	Y25	Z25	X26	Y26	Z26	X27	Y27	Z27	X28	Y28	Z28	X29	Y29	Z29	X30	Y30	Z30	X31	Y31	Z31	X32	Y32	Z32	X33	Y33	Z33	X34	Y34	Z34	X35	Y35	Z35	X36	Y36	Z36	X37	Y37	Z37	X38	Y38	Z38	X39	Y39	Z39	X40	Y40	Z40	X41	Y41	Z41	X42	Y42	Z42	X43	Y43	Z43	X44	Y44	Z44	X45	Y45	Z45	X46	Y46	Z46	X47	Y47	Z47	X48	Y48	Z48	X49	Y49	Z49	X50	Y50	Z50	X51	Y51	Z51	X52	Y52	Z52	X53	Y53	Z53	

273	2.72	903.4412231445312	1100.966186523438	56.06628799438477	775.2047119140625	1106.067993164062	99.63620758056641	840.4509887695312	1143.3857421875	83.69721984863281	760.9722290039062	1337.544921875	-130.2689819335938	855.068603515625	1293.195556640625	102.8599090576172	815.4749145507812	1585.009155273438	79.03080749511719	760.7440795898438	1472.932495117188	-94.45634460449219	927.1083374023438	1407.5947265625	98.13928985595703	725.2764892578125	1557.682373046875	124.0416717529297	631.6353149414062	1537.99658203125	70.63515472412109	588.05517578125	1406.125244140625	126.4717483520508	583.731689453125	1189.5556640625	148.6628570556641	667.0248413085938	1184.242309570312	176.7656402587891	577.7090454101562	932.7728271484375	41.45252990722656	600.6660766601562	905.9359130859375	123.4103164672852	577.7388305664062	1074.256103515625	140.2122955322266	606.8492431640625	743.3203125	13.64608383178711	589.0211181640625	830.702392578125	97.52254486083984	564.6904296875	842.5155029296875	31.21557235717773	963.7383422851562	1576.369140625	-41.06632232666016	1032.9287109375	1506.792602539062	-49.38853454589844	1070.456787109375	1214.034912109375	-51.28766632080078	983.3705444335938	1206.861938476562	-9.682458877563477	1021.213195800781	966.998046875	-179.5116271972656	1078.239990234375	954.5045166015625	-121.5851440429688	1080.750732421875	1141.784423828125	-78.95006561279297	1003.409240722656	774.1937866210938	-193.0348815917969	1023.225952148438	859.54638671875	-211.7050170898438	1075.548461914062	855.406005859375	-159.6597290039062	847.8193359375	1772.153564453125	-7.935229778289795	628.6847534179688	1793.343383789062	-26.98027992248535	717.04296875	1829.812133789062	-114.0674896240234	761.2841186523438	1737.952270507812	90.00184631347656	640.9534912109375	1017.8623046875	40.973388671875	973.1265258789062	1005.810302734375	-103.1512298583984	899.9276733398438	1078.720458984375	-163.6315155029297	651.2799682617188	1079.680053710938	-73.26850128173828	707.8091430664062	524.1307373046875	-97.94969940185547	673.1009521484375	658.1519165039062	-32.19194793701172	812.7177734375	29.96657371520996	-117.3385772705078	746.16357421875	263.399658203125	-59.73772048950195	766.6401977539062	45.34311676025391	-345.0469970703125	832.0301513671875	44.63820266723633	-290.6556396484375	740.5567016601562	40.4168815612793	-220.7882843017578	896.8668212890625	31.30798530578613	-80.77672576904297	961.4971923828125	512.055419921875	-156.5444793701172	964.515625	797.5462036132812	-143.3796691894531	1116.550170898438	199.1871185302734	255.1992797851562	1013.900756835938	417.7266235351562	-65.62581634521484	1031.817626953125	46.2874641418457	117.1786117553711	993.5617065429688	78.67813873291016	168.5380859375	1114.390502929688	86.63760375976562	184.6528015136719	1075.81884765625	250.9095458984375	292.1973571777344	
274	2.73	901.57861328125	1100.991821289062	46.5854377746582	773.805419921875	1106.668579101562	91.89112854003906	838.725341796875	1143.719970703125	74.95674896240234	755.8338012695312	1338.036010742188	-137.3460998535156	852.6901245117188	1293.760620117188	95.06755065917969	812.6263427734375	1585.449951171875	71.05570983886719	756.2984008789062	1473.438110351562	-101.7480697631836	924.3595581054688	1407.973999023438	89.32460021972656	722.828369140625	1558.276123046875	116.9833297729492	628.7786254882812	1538.585205078125	64.38525390625	585.0504760742188	1406.751586914062	119.9721374511719	579.1810302734375	1189.957153320312	140.4273529052734	662.3833618164062	1183.821533203125	168.7842254638672	571.2680053710938	934.8819580078125	29.81480407714844	593.5736083984375	906.6339111328125	111.4583587646484	572.2431640625	1074.865844726562	130.5238494873047	598.1498413085938	745.6966552734375	-0.74131840467453	581.1555786132812	831.938232421875	84.41796112060547	557.1429443359375	845.0514526367188	18.1883487701416	959.8819580078125	1576.504028320312	-50.36971664428711	1028.923461914062	1506.823974609375	-59.14092636108398	1066.118774414062	1214.017211914062	-60.59126663208008	979.43994140625	1207.200561523438	-18.18398666381836	1015.617980957031	966.4161987304688	-187.2149047851562	1073.142211914062	954.2453002929688	-129.6378631591797	1076.150756835938	1141.666748046875	-88.03826904296875	998.2305908203125	773.5321655273438	-199.9512329101562	1017.659545898438	858.9140625	-219.0817413330078	1070.418212890625	855.0831909179688	-167.3914642333984	844.2537231445312	1772.346557617188	-16.66684722900391	625.1900634765625	1793.943725585938	-33.22482299804688	712.4353637695312	1830.30029296875	-121.3717575073242	758.7291870117188	1738.302490234375	82.21889495849609	638.2157592773438	1018.353393554688	36.27184295654297	967.5258178710938	1006.151000976562	-114.5481567382812	893.1832885742188	1079.177978515625	-173.1562347412109	646.27392578125	1080.244384765625	-78.22761535644531	706.1302490234375	523.8345947265625	-100.2589721679688	670.9939575195312	658.3644409179688	-35.47231292724609	812.674072265625	30.05093193054199	-117.369873046875	745.3932495117188	263.5110473632812	-60.72954559326172	766.37646484375	45.19965744018555	-344.8728942871094	831.9844360351562	44.50661849975586	-290.7333679199219	740.4881591796875	40.28216934204102	-220.8060302734375	896.821533203125	31.3745002746582	-80.79495239257812	950.61767578125	513.8854370117188	-176.9131622314453	956.0639038085938	798.1922607421875	-159.1468353271484	1116.307739257812	199.8006439208984	228.9191284179688	1005.37939453125	419.6107177734375	-87.97430419921875	1030.742065429688	47.76485443115234	89.47720336914062	993.4205322265625	78.95977020263672	142.4724578857422	1114.413696289062	89.01184844970703	155.7442169189453	1075.78076171875	250.035888671875	268.0272216796875	
275	2.74	899.5524291992188	1101.14990234375	37.20259475708008	772.2865600585938	1107.2548828125	84.30695343017578	836.8357543945312	1144.113037109375	66.35005950927734	750.6361083984375	1338.60986328125	-144.2837371826172	850.36376953125	1294.318481445312	87.26244354248047	809.8684692382812	1585.904907226562	63.23656845092773	751.8080444335938	1474.020751953125	-108.8720397949219	921.6845092773438	1408.364379882812	80.45679473876953	720.5286254882812	1558.88427734375	110.1307067871094	625.99853515625	1539.252685546875	58.35928344726562	582.1177978515625	1407.466430664062	113.693717956543	574.6021118164062	1190.455322265625	132.2629699707031	657.729736328125	1183.483764648438	160.8088684082031	564.6951293945312	937.0892333984375	18.3501033782959	586.3965454101562	907.5036010742188	99.66763305664062	566.6737670898438	1075.565795898438	120.948371887207	589.2342529296875	748.1756591796875	-14.82687091827393	573.17578125	833.3592529296875	71.55554962158203	549.4874877929688	847.6904296875	5.423982620239258	955.9739379882812	1576.758056640625	-59.61445617675781	1024.88623046875	1507.0205078125	-68.91222381591797	1061.790771484375	1214.17138671875	-69.85107421875	975.53857421875	1207.772705078125	-26.66627883911133	1010.050048828125	966.091796875	-195.0231628417969	1068.025146484375	954.1708374023438	-137.7837524414062	1071.5634765625	1141.727905273438	-97.10835266113281	992.8406372070312	773.1383666992188	-206.9693908691406	1011.990661621094	858.4939575195312	-226.5341796875	1065.150390625	854.9224853515625	-175.2071990966797	840.6315307617188	1772.636596679688	-25.31200790405273	621.6754150390625	1794.489990234375	-39.44530868530273	707.7822875976562	1830.697387695312	-128.6752777099609	756.12548828125	1738.796020507812	74.53257751464844	635.521240234375	1018.794250488281	31.59692573547363	961.8871459960938	1006.646850585938	-125.688720703125	886.4365234375	1079.781005859375	-182.5135498046875	641.2744750976562	1080.833984375	-83.07656097412109	704.5244140625	523.5279541015625	-102.4639358520508	668.9849243164062	658.5594482421875	-38.64665985107422	812.6370239257812	30.13688659667969	-117.410285949707	744.7867431640625	263.6505432128906	-61.5968132019043	766.1397705078125	45.00366592407227	-344.7248229980469	831.9453735351562	44.37448501586914	-290.7859191894531	740.4212036132812	40.14645767211914	-220.8275299072266	896.8026123046875	31.44410133361816	-80.82071685791016	939.1384887695312	516.0413818359375	-196.7191925048828	947.71044921875	799.28076171875	-174.2519226074219	1115.542846679688	199.4195251464844	201.6501159667969	996.2386474609375	421.5555114746094	-110.2256011962891	1028.988525390625	48.86660766601562	60.37507247924805	992.696044921875	78.499755859375	115.1047668457031	1113.707397460938	90.79248809814453	125.4510116577148	1075.33056640625	247.9650421142578	243.0579986572266	
276	2.75	897.325439453125	1101.407348632812	27.91942024230957	770.6260375976562	1107.796264648438	76.87747192382812	834.7691040039062	1144.539916992188	57.89418792724609	745.3743286132812	1339.250854492188	-151.1051635742188	848.0552368164062	1294.859619140625	79.42772674560547	807.185546875	1586.37109375	55.5471305847168	747.2544555664062	1474.665405273438	-115.8512268066406	919.0697631835938	1408.763549804688	71.53736114501953	718.3500366210938	1559.496826171875	103.4515533447266	623.2921752929688	1539.984497070312	52.54491806030273	579.2525634765625	1408.246337890625	107.6290588378906	570.0095825195312	1191.033569335938	124.2092666625977	653.1040649414062	1183.227294921875	152.8648986816406	557.9894409179688	939.3820190429688	7.08777904510498	579.1846923828125	908.5197143554688	88.05646514892578	561.0624389648438	1076.313232421875	111.5441207885742	580.1343994140625	750.748779296875	-28.62911224365234	565.1339721679688	834.935791015625	58.94197082519531	541.736083984375	850.3975830078125	-7.05208158493042	951.998291015625	1577.10986328125	-68.82731628417969	1020.796081542969	1507.36328125	-78.72719573974609	1057.489990234375	1214.486328125	-79.11534881591797	971.7021484375	1208.548706054688	-35.12981796264648	1004.479370117188	965.995361328125	-202.9350128173828	1062.89404296875	954.2586669921875	-146.0599060058594	1066.9951171875	1141.951904296875	-106.2045440673828	987.2142333984375	773.0062866210938	-214.087646484375	1006.168579101562	858.259521484375	-234.0553131103516	1059.726440429688	854.893310546875	-183.1269836425781	836.955078125	1773.022583007812	-33.85962677001953	618.11474609375	1794.995849609375	-45.63795852661133	703.0852661132812	1831.008422851562	-135.9698333740234	753.4698486328125	1739.431884765625	66.95042419433594	632.8641967773438	1019.179870605469	26.90743064880371	956.224853515625	1007.276733398438	-136.5866394042969	879.7133178710938	1080.509399414062	-191.6962432861328	636.294189453125	1081.418212890625	-87.85971069335938	702.9893798828125	523.1891479492188	-104.5830001831055	667.0872802734375	658.7171630859375	-41.72028732299805	812.61181640625	30.22690200805664	-117.462532043457	744.3518676757812	263.8088073730469	-62.35679244995117	765.94091796875	44.71281433105469	-344.6265563964844	831.9198608398438	44.21136474609375	-290.8262634277344	740.35986328125	40.00849151611328	-220.8670349121094	896.8162841796875	31.53246307373047	-80.86612701416016	927.0773315429688	518.4771728515625	-215.9284973144531	939.4327392578125	800.7465209960938	-188.7198181152344	1114.207397460938	198.0964965820312	173.4414825439453	986.4511108398438	423.5116577148438	-132.3395385742188	1026.384765625	49.64727783203125	30.01944732666016	991.229248046875	77.42665863037109	86.53757476806641	1112.13232421875	92.03667449951172	93.90715026855469	1074.479125976562	244.7906341552734	217.2944641113281	
